<svg width="20" height="15" viewBox="0 0 20 15" fill="none" xmlns="http://www.w3.org/2000/svg">
<path fill-rule="evenodd" clip-rule="evenodd" d="M1.5 2.4266V1.5H18.5V2.4266L10.1304 7.54137C10.0503 7.59028 9.94967 7.59028 9.86964 7.54138L1.5 2.4266ZM1.5 4.18451V13.5H18.5V4.18451L10.9125 8.8213C10.3523 9.16364 9.64766 9.16364 9.08746 8.8213L1.5 4.18451ZM0 1C0 0.447715 0.447715 0 1 0H19C19.5523 0 20 0.447715 20 1V14C20 14.5523 19.5523 15 19 15H1C0.447715 15 0 14.5523 0 14V1Z" fill="white"/>
</svg>
