<svg width="18" height="18" viewBox="0 0 18 18" fill="none" xmlns="http://www.w3.org/2000/svg">
<path fill-rule="evenodd" clip-rule="evenodd" d="M9 1.80277L16.5 6.80277V16.5H12V11.75C12 10.7835 11.2165 9.99999 10.25 9.99999H7.75C6.7835 9.99999 6 10.7835 6 11.75V16.5H1.5V6.80277L9 1.80277ZM7.5 16.5H10.5V11.75C10.5 11.6119 10.3881 11.5 10.25 11.5H7.75C7.61193 11.5 7.5 11.6119 7.5 11.75V16.5ZM0 6.53518C0 6.20082 0.167101 5.88859 0.4453 5.70313L8.4453 0.369793C8.7812 0.14586 9.2188 0.14586 9.5547 0.369793L17.5547 5.70313C17.8329 5.88859 18 6.20082 18 6.53518V17C18 17.5523 17.5523 18 17 18H1C0.447716 18 0 17.5523 0 17V6.53518Z" fill="white"/>
</svg>
