<svg width="88" height="80" viewBox="0 0 88 80" fill="none" xmlns="http://www.w3.org/2000/svg">
<path d="M19.52 50.86V76.64H25.04V58.22H34.25V76.64H46.14L54.89 50.86" fill="#2199FD" fill-opacity="0.16"/>
<path d="M20.34 51.1801V75.5001H68.57V51.1801H20.34ZM70.07 49.6801V77.0001H18.84V49.6801H70.07Z" fill="#2199FD"/>
<path d="M18.5 49.68H70.42V47.5H18.5V49.68ZM71.92 46V51.18H17V46H71.92ZM42.45 68.1H63.05V58.55H42.45V68.1ZM64.55 57.05V69.6H40.95V57.05H64.55Z" fill="#2199FD"/>
<path d="M42.45 68.1H52V58.55H42.45V68.1ZM53.5 57.05V69.6H40.95V57.05H53.5ZM25.87 58.55V75.47H33.58V58.55H25.87ZM35.08 57.05V76.97H24.37V57.05H35.08ZM25.12 54.87H34.33V53.37H25.12" fill="#2199FD"/>
</svg>
