<svg width="88" height="80" viewBox="0 0 88 80" fill="none" xmlns="http://www.w3.org/2000/svg">
<path d="M36.55 31.75H55.25V48.55H36.55V31.75Z" fill="#4F71D5" fill-opacity="0.16"/>
<path d="M36.55 3.75H51.55V31.85H36.55V3.75ZM32.85 48.65V76.75H47.75L57.15 48.65" fill="#4F71D5" fill-opacity="0.16"/>
<path d="M37.3 47.8H54.5V32.5H37.3V47.8ZM56 31V49.3H35.8V31H56Z" fill="#4F71D5"/>
<path d="M50.8 4.5V31.35H52.3V3H35.8V31.85H37.3V4.5H50.8ZM33.6 75.5H58.3V49.4H33.6V75.5ZM59.8 47.9V77H32.1V47.9H59.8Z" fill="#4F71D5"/>
<path d="M55.25 53.5H32.85V55H55.25V53.5ZM53.35 59.1H32.85V60.6H53.35V59.1ZM51.55 64.7H32.85V66.2H51.55V64.7ZM49.65 70.3H32.85V71.8H49.65V70.3ZM36.55 43.8H55.25V42.3H36.55V43.8ZM55.25 36.6H36.55V38.1H55.25V36.6ZM36.55 15.7H51.55V14.2H36.55V15.7ZM36.55 10.1H51.55V8.59998H36.55V10.1ZM51.55 19.8H36.55V21.3H51.55V19.8ZM36.55 26.9H51.55V25.4H36.55" fill="#4F71D5"/>
<path d="M67.6 75.5H59.05V77H69.1V17.9H51.55V19.4H67.6V75.5ZM20.5 36.3H36.55V34.8H19V77H32.85V75.5H20.5" fill="#4F71D5"/>
<path d="M20.5 32.5V34.7H35.8V32.5H20.5ZM37.3 31V36.2H19V31H37.3ZM52.3 17.9H67.6V15.7H52.3V17.9ZM69.1 14.2V19.4H50.8V14.2H69.1Z" fill="#4F71D5"/>
</svg>
