<svg width="88" height="80" viewBox="0 0 88 80" fill="none" xmlns="http://www.w3.org/2000/svg">
<path d="M21.55 58.75H29.85V76.25H21.55V58.75ZM54.062 76.35H45.65V32.05H69.25L54.55 75.35" fill="#85C802" fill-opacity="0.16"/>
<path d="M46.4 32.8V75.5H71.5V32.8H46.4ZM73 31.3V77H44.9V31.3H73Z" fill="#4488FF" fill-opacity="0.16"/>
<path d="M44.7 31.3H73.2V29.5H44.7V31.3ZM74.7 28V32.8H43.2V28H74.7ZM33.9 68H40.3V59.5H33.9V68ZM41.8 58V69.5H32.4V58H41.8ZM22.3 74.6H29.1V59.5H22.3V74.6ZM30.6 58V76.1H20.8V58H30.6Z" fill="#4488FF" fill-opacity="0.16"/>
<path d="M18.1 75.5H44.9V52.8H18.1V75.5ZM46.4 51.3V77H16.6V51.3H46.4Z" fill="#4488FF" fill-opacity="0.16"/>
<path d="M18.5 50.3H47V48.5H18.5V50.3ZM48.5 47V51.8H17V47H48.5ZM47.65 38.5H69.25V37H47.65V38.5ZM47.65 43.5H67.65V42H47.65" fill="#4488FF" fill-opacity="0.16"/>
<path d="M45.65 49.5H63.95V48H45.65V49.5ZM62.25 53H45.65V54.5H62.25V53ZM60.65 58H45.65V59.5H60.65V58ZM58.95 63H45.65V64.5H58.95V63ZM57.25 67.9H45.65V69.4H57.25" fill="#4488FF" fill-opacity="0.16"/>
</svg>
